#!OML:ASF I:\salsa\salsa 7_09\Patient 1\Session 1\dancermale.ASF
:FULLY-SPECIFIED
:DEGREES
1962
root 10.1043 16.9045 -0.234845 -334.868 265.367 -380.978
lowerback -2.93682 -1.79477 0.335231
upperback -1.30352 -2.42136 -1.89372
thorax 0.212881 -1.23046 -2.20142
lowerneck -4.78866 2.96626 1.6135
upperneck 8.88064 3.94354 -1.6543
head 3.81067 1.9089 -0.641918
rclavicle 5.70419e-015 -9.93923e-015
rhumerus -51.1019 21.9509 -116.026
rradius 98.1641
rwrist 37.2171
rhand -14.8414 9.7421
rfingers 7.12502
rthumb 11.3177 -19.9325
lclavicle 5.70419e-015 -9.93923e-015
lhumerus -5.94861 4.33421 94.1442
lradius 77.671
lwrist 57.6498
lhand -24.6879 53.3847
lfingers 7.12502
lthumb 1.813 803.357
rfemur -18.789 0.695907 18.5607
rtibia 46.7996
rfoot -25.5633 -13.2054
rtoes -2.4678
lfemur -29.561 4.10028 -22.0808
ltibia 24.6644
lfoot 355.909 -1.75702
ltoes -10.3944
1963
root 10.1801 16.9287 -0.273 -344.779 265.481 -370.837
lowerback -2.80893 -1.44473 1.36098
upperback -1.22489 -1.97542 -1.81198
thorax 0.207904 -1.00804 -2.67811
lowerneck -4.91896 2.712 1.51147
upperneck 8.93769 3.58713 -1.40143
head 3.84048 1.73993 -0.55606
rclavicle -1.6201e-014 -7.95139e-016
rhumerus -50.8973 22.1462 -115.82
rradius 97.9653
rwrist 37.2326
rhand -14.9333 9.7141
rfingers 7.12502
rthumb 11.2291 -19.9654
lclavicle -1.6201e-014 -7.95139e-016
lhumerus -7.38011 2.9476 94.112
lradius 81.5437
lwrist 56.9589
lhand -26.2644 53.2777
lfingers 7.12502
lthumb 0.290397 803.257
rfemur -17.8375 -0.337607 19.7149
rtibia 44.0193
rfoot -25.9021 -13.696
rtoes -1.77405
lfemur -29.6201 3.71441 -20.7209
ltibia 23.996
lfoot 356.605 -1.23425
ltoes -9.77686
1964
root 10.2687 16.9579 -0.292383 -350.989 265.379 -364.1
lowerback -2.90744 -1.07837 2.24631
upperback -1.2289 -1.50913 -1.81586
thorax 0.261521 -0.776365 -3.17052
lowerneck -5.12412 2.41575 1.33241
upperneck 9.0752 3.17048 -1.04744
head 3.91051 1.54252 -0.425172
rclavicle -3.08116e-015 -3.18055e-015
rhumerus -50.3842 22.7652 -115.326
rradius 97.5394
rwrist 36.8878
rhand -15.1365 9.67925
rfingers 7.12502
rthumb 11.0331 -20.0108
lclavicle -3.08116e-015 -3.18055e-015
lhumerus -8.52899 1.62673 94.0275
lradius 85.3989
lwrist 55.9598
lhand -26.9906 52.8197
lfingers 7.12502
lthumb -0.411053 802.799
rfemur -17.6016 -1.57981 20.334
rtibia 41.5981
rfoot -25.9202 -13.4952
rtoes -2.34437
lfemur -29.988 2.79192 -19.6558
ltibia 23.1412
lfoot 357.275 -0.0530702
ltoes -10.1197
1965
root 10.3418 16.9959 -0.351182 -355.499 265.266 -359.113
lowerback -3.22943 -0.746948 2.39986
upperback -1.18265 -1.07593 -1.70417
thorax 0.519372 -0.554305 -3.13593
lowerneck -5.35051 2.09949 1.12871
upperneck 9.3331 2.72267 -0.648679
head 4.02938 1.3304 -0.276272
rclavicle -2.23633e-016 0
rhumerus -49.9859 23.4397 -114.809
rradius 97.1776
rwrist 36.581
rhand -15.2417 9.48051
rfingers 7.12502
rthumb 10.9316 -20.2149
lclavicle -2.23633e-016 0
lhumerus -9.40947 0.395664 93.9141
lradius 89.163
lwrist 54.506
lhand -27.5527 52.5407
lfingers 7.12502
lthumb -0.953875 802.518
rfemur -17.0376 -2.27179 20.9195
rtibia 38.9291
rfoot -25.7945 -12.8225
rtoes -1.64533
lfemur -29.9865 2.21642 -18.594
ltibia 21.8516
lfoot 357.732 0.971666
ltoes -11.9368
1966
root 10.4152 17.0289 -0.40972 -362.518 265.065 -351.557
lowerback -3.57548 -0.365684 2.79621
upperback -1.17429 -0.587521 -1.55687
thorax 0.753986 -0.305498 -3.19449
lowerneck -5.57727 1.77035 1.13444
upperneck 9.63648 2.24734 -0.369568
head 4.17401 1.10725 -0.205955
rclavicle 7.1314e-015 -3.57812e-015
rhumerus -49.9942 23.2968 -114.45
rradius 97.2078
rwrist 37.1246
rhand -14.9383 9.834
rfingers 7.12502
rthumb 11.2243 -19.8457
lclavicle 7.1314e-015 -3.57812e-015
lhumerus -10.0421 -0.919929 93.7208
lradius 92.8646
lwrist 52.6529
lhand -28.0517 52.3327
lfingers 7.12502
lthumb -1.4358 802.308
rfemur -16.6767 -2.38662 21.8034
rtibia 36.608
rfoot -25.3716 -12.227
rtoes -1.31571
lfemur -30.2156 1.87234 -17.1771
ltibia 20.8821
lfoot 357.772 1.77497
ltoes -13.5452
1967
root 10.5043 17.0748 -0.442251 -357.069 265.026 -356.183
lowerback -4.01474 -0.0330377 2.39407
upperback -1.31918 -0.141618 -1.75127
thorax 0.885459 -0.0846241 -3.1517
lowerneck -5.77479 1.42902 1.15198
upperneck 9.8787 1.75233 -0.0844361
head 4.29329 0.876471 -0.138203
rclavicle 9.7156e-015 -1.19271e-014
rhumerus -49.7834 23.5324 -114.046
rradius 97.0774
rwrist 37.3301
rhand -14.6155 10.0492
rfingers 7.12502
rthumb 11.5356 -19.6133
lclavicle 9.7156e-015 -1.19271e-014
lhumerus -10.4329 -2.28098 93.4341
lradius 96.4373
lwrist 50.6315
lhand -28.3331 52.136
lfingers 7.12502
lthumb -1.70763 802.109
rfemur -17.0808 -2.74154 21.3535
rtibia 35.0159
rfoot -24.6847 -11.6056
rtoes -1.74924
lfemur -31.0134 1.2982 -17.2583
ltibia 20.4805
lfoot 357.215 2.06336
ltoes -14.2499
1968
root 10.569 17.1119 -0.498459 -360.117 264.898 -353.171
lowerback -3.88979 0.291512 2.26562
upperback -1.18342 0.301061 -1.63821
thorax 0.985916 0.14187 -2.94154
lowerneck -5.85498 1.08413 1.09491
upperneck 10.0516 1.25924 0.204269
head 4.36536 0.644608 -0.0576295
rclavicle -2.33572e-015 -1.27222e-014
rhumerus -49.7255 23.979 -113.644
rradius 96.9045
rwrist 36.8934
rhand -14.6948 9.96229
rfingers 7.12502
rthumb 11.4591 -19.7045
lclavicle -2.33572e-015 -1.27222e-014
lhumerus -10.5626 -3.49762 93.1218
lradius 99.7278
lwrist 48.6333
lhand -28.4342 51.633
lfingers 7.12502
lthumb -1.8053 801.605
rfemur -16.6996 -2.08527 21.835
rtibia 33.7368
rfoot -24.0658 -11.8982
rtoes -1.3011
lfemur -31.0579 1.08933 -16.3879
ltibia 21.0862
lfoot 355.749 2.06551
ltoes -15.0129
1969
root 10.6462 17.1479 -0.533286 -362.889 265.056 -350.418
lowerback -3.5829 0.520545 2.29171
upperback -1.1448 0.612585 -1.54592
thorax 0.874348 0.297767 -2.84801
lowerneck -5.85165 0.714373 1.02176
upperneck 10.2458 0.733947 0.478956
head 4.43061 0.395357 0.0186132
rclavicle 2.70347e-014 -1.86858e-014
rhumerus -49.8186 24.5839 -113.27
rradius 96.8346
rwrist 36.4264
rhand -14.9579 9.63756
rfingers 7.12502
rthumb 11.2053 -20.0432
lclavicle 2.70347e-014 -1.86858e-014
lhumerus -10.2879 -4.58738 92.7683
lradius 102.667
lwrist 46.6132
lhand -28.851 50.6477
lfingers 7.12502
lthumb -2.20784 800.616
rfemur -16.5172 -1.62257 22.296
rtibia 32.8191
rfoot -23.6653 -12.2882
rtoes -0.353479
lfemur -31.5325 0.814728 -15.8836
ltibia 22.5621
lfoot 354.169 1.78238
ltoes -15.1511
1970
root 10.7432 17.1616 -0.574047 -365.682 265.54 -346.934
lowerback -3.81974 0.626929 2.09552
upperback -1.344 0.752836 -1.36617
thorax 0.806932 0.363785 -2.54499
lowerneck -5.87902 0.350893 0.783883
upperneck 10.477 0.228143 0.784652
head 4.51786 0.151142 0.135841
rclavicle -1.75179e-014 1.98785e-015
rhumerus -49.8938 25.3068 -112.831
rradius 96.8287
rwrist 36.1556
rhand -15.2273 9.37598
rfingers 7.12502
rthumb 10.9455 -20.3187
lclavicle -1.75179e-014 1.98785e-015
lhumerus -9.47367 -5.53324 92.3225
lradius 105.176
lwrist 44.0418
lhand -29.4294 49.5723
lfingers 7.12502
lthumb -2.76638 799.534
rfemur -17.1605 -1.15729 22.9201
rtibia 32.0172
rfoot -23.3405 -12.8903
rtoes 0.685492
lfemur -33.3971 1.35507 -15.9626
ltibia 25.9638
lfoot 352.014 0.105731
ltoes -15.9955
1971
root 10.8111 17.1806 -0.597561 -369.849 265.891 -342.69
lowerback -3.83028 0.761881 2.10454
upperback -1.2723 0.932443 -1.16626
thorax 0.894021 0.456738 -2.33533
lowerneck -6.14828 -0.0207456 0.384209
upperneck 10.968 -0.288269 1.15339
head 4.75485 -0.100429 0.303511
rclavicle 8.15017e-015 -3.57812e-015
rhumerus -49.9089 25.9063 -112.279
rradius 96.8242
rwrist 35.8677
rhand -15.4639 9.19862
rfingers 7.12502
rthumb 10.7173 -20.508
lclavicle 8.15017e-015 -3.57812e-015
lhumerus -8.15742 -6.40853 91.8053
lradius 107.206
lwrist 40.8169
lhand -29.8164 48.7656
lfingers 7.12502
lthumb -3.14018 798.722
rfemur -16.8282 -0.580612 23.355
rtibia 30.7749
rfoot -22.9046 -13.4229
rtoes 1.79189
lfemur -34.3475 1.30222 -15.9668
ltibia 29.9854
lfoot 350.035 0.180181
ltoes -16.2182
1972
root 10.8779 17.2005 -0.610376 -374.802 266.312 -337.684
lowerback -3.74741 0.881218 2.20847
upperback -1.26382 1.08871 -0.987879
thorax 0.863651 0.535291 -2.204
lowerneck -6.2529 -0.405052 0.130642
upperneck 11.2288 -0.791612 1.19237
head 4.87687 -0.356521 0.331967
rclavicle -8.44835e-015 -6.75868e-015
rhumerus -50.0151 26.2134 -111.699
rradius 96.8774
rwrist 35.6241
rhand -15.3842 9.10704
rfingers 7.12502
rthumb 10.7942 -20.5956
lclavicle -8.44835e-015 -6.75868e-015
lhumerus -6.57038 -7.23758 91.1828
lradius 108.782
lwrist 37.3631
lhand -30.1663 48.2701
lfingers 7.12502
lthumb -3.47805 798.221
rfemur -16.3536 0.212197 23.735
rtibia 29.3531
rfoot -22.3042 -14.1992
rtoes 2.88486
lfemur -35.2654 0.961377 -16.059
ltibia 34.3632
lfoot 348.459 1.04857
ltoes -15.2378
